<?xml version="1.0" encoding="UTF-8"?>
<svg id="Layer_2" data-name="Layer 2" xmlns="http://www.w3.org/2000/svg" viewBox="0 0 77.9 84.82">
  <defs>
    <style>
      .cls-1 {
        fill: #fff;
      }
    </style>
  </defs>
  <path class="cls-1" d="M77.9,58.52c0-.11-.06-.21-.15-.27l-12.26-7.29v-24.73l4.07-2.3c.09-.05.14-.14.14-.24v-3.17s0-.05-.01-.08c-.02-.05-.04-.09-.07-.12-.02-.02-.04-.03-.06-.04,0,0,0,0,0,0l-4.74-2.71v-.45l-.27.16L34.65.18c-.08-.04-.17-.05-.25-.01l-.24-.14c-.09-.05-.19-.05-.27,0L5.15,16.27l-.27-.16v3.81l.13.07h.01s5.1,2.92,5.1,2.92v29.53L.16,58.08c-.1.06-.16.16-.16.27v3.83c0,.11.06.21.15.27l38.1,22.33s.1.04.16.04c.05,0,.11-.01.15-.04.04-.02.07-.06.1-.1l39.07-22.08c.09-.05.14-.14.14-.24v-3.72s.03-.08.04-.12ZM64.94,51.35v9.5l-24.07,13.86v-34.55l2.69-1.52.62-.35,20.76-11.74v24.8ZM69.14,23.53l-25.53,14.43-.62.35-2.16,1.22v-2.54l.59-.33h0l27.72-15.67v2.54ZM63.87,17.66l-11.87,6.71-11.93,6.75L10.6,14.26,34.4.81l29.47,16.85ZM9.76,14.3v2.81l.13.07,29.9,17.1h0v.31l.27-.15.28.16v-.31h0s24.34-13.76,24.34-13.76l.14-.08v-2.24l4.05,2.31-27.99,15.82-.31.18h0l-1.13-.65-16.72-9.56L5.71,16.59l4.05-2.29ZM10.67,23.24l25.41,14.53-.79.45-4.77-2.73s-.06-.08-.1-.1l-1.1-.62s-.09-.04-.13-.04l-.3-.17v.34s-.03.09-.03.13v11.13s.01.09.03.13v.03l.03.02s.06.07.1.1c.04.02.08.03.12.03l8.41,4.81.41.24v-11.76l-2.05-1.17.79-.45h0l3.61,2.07v34.53l-9.12-5.21v-17.92c0-.1-.06-.19-.14-.24l-8.91-4.99-.64-.35-1.17-.65c-.09-.05-.19-.05-.27,0-.09.05-.14.14-.14.24v17.47l-9.27-5.3V23.24ZM37.41,49.2l-6.85-3.85v-9.2l4.16,2.38.63.35,2.06,1.18v9.13ZM29.91,65.77l-6.21-3.46v-13.47l6.21,3.57v13.36ZM10.11,53.16v4.76c0,.1.06.19.14.24l9.82,5.61.52.29h0s.07.08.11.1c.04.02.09.04.13.04l9.22,5.27h0s0,0,0,0l.73.42,9.66,5.52h.02s.09.05.14.05c.05,0,.1-.01.14-.04l24.62-14.18c.09-.05.14-.14.14-.24v-9.33l11.49,6.83c-1.3.75-2.84,1.64-4.53,2.61l-33.92,19.17s-.07.03-.09.04L3.04,59.59l-2.11-1.24,9.18-5.19Z"/>
  <path class="cls-1" d="M13.8,37.56l.03.02s.06.07.1.09c.04.03.08.04.12.04h.02s8.4,4.81,8.4,4.81l.41.24v-11.76l-7.45-4.26s-.06-.07-.1-.1l-1.09-.63s-.09-.03-.13-.03l-.3-.18v.35s-.03.09-.03.13v11.13s.01.09.03.13v.03ZM22.33,40.44l-6.85-3.85v-9.2l6.85,3.91v9.14Z"/>
</svg>